<svg width="106" height="106" viewBox="0 0 106 106" fill="none" xmlns="http://www.w3.org/2000/svg">
<circle cx="53" cy="53" r="52.5" fill="#F6F6F6" stroke="#F6F6F6"/>
<path d="M66.4424 70.0005C75.0088 70.0005 82.6244 75.4557 85.3799 83.5669L88.3955 92.4468C79.0113 100.873 66.6048 106 53 106C39.395 106 26.9878 100.873 17.6035 92.4468L20.6201 83.5669C23.3756 75.4557 30.9911 70.0005 39.5576 70.0005H66.4424Z" fill="#D3D3D3"/>
<path d="M71.1064 29.1787C72.8852 28.4147 75.5912 30.2337 75.2207 32.1338L72.6699 45.208C72.7897 45.998 72.8998 47.0061 73.0645 48.5459L73.5 52.6221C74.3733 59.6069 68.9269 65.7772 61.8877 65.7773H44.041C36.944 65.7772 31.374 59.6915 32 52.6221L32.5791 48.1162C32.8594 45.9342 32.9991 44.8429 33.2236 43.9092C33.2958 43.6092 33.378 43.3129 33.4648 43.0195L31.3418 32.1338C30.9715 30.2337 33.6783 28.4147 35.457 29.1787C36.5871 29.6641 37.9132 30.1582 39.4492 30.6221C41.0171 31.0955 42.4715 31.4181 43.7764 31.6367C45.2761 31.0264 46.8756 30.6146 48.541 30.4336C49.4958 30.3298 50.5959 30.3291 52.7959 30.3291C55.0393 30.3291 56.1611 30.3297 57.1299 30.4365C58.8791 30.6295 60.5536 31.0782 62.1162 31.7422C63.5866 31.527 65.2714 31.1783 67.1133 30.6221C68.6495 30.1581 69.9762 29.6641 71.1064 29.1787Z" fill="#D3D3D3"/>
</svg>
