<svg width="36" height="36" viewBox="0 0 36 36" fill="none" xmlns="http://www.w3.org/2000/svg">
<circle cx="18" cy="18" r="17.8302" fill="#F6F6F6" stroke="#E7E7E7" stroke-width="0.339623"/>
<path d="M22.5658 23.7739C25.4749 23.7742 28.0607 25.6268 28.9965 28.3813L30.0199 31.396C26.833 34.2575 22.6206 36.0003 18.0004 36.0005C13.3797 36.0005 9.16601 34.2578 5.97888 31.396L7.0033 28.3813C7.93905 25.6267 10.5248 23.7741 13.434 23.7739H22.5658ZM18.6195 9.51611C21.2054 9.64838 23.3385 11.5875 23.7172 14.1489C23.7375 14.2863 23.753 14.4461 23.7836 14.7651L23.8363 15.313C23.8778 15.745 23.8983 15.9614 23.9037 16.1401C23.9908 19.0637 21.748 21.5317 18.8295 21.7241C18.6511 21.7359 18.434 21.7358 18.0004 21.7358C17.5664 21.7358 17.3488 21.7359 17.1703 21.7241C14.2517 21.5317 12.009 19.0637 12.0961 16.1401C12.1014 15.9614 12.122 15.745 12.1635 15.313L12.2162 14.7651C12.2468 14.4461 12.2623 14.2863 12.2826 14.1489C12.6613 11.5875 14.7943 9.64838 17.3802 9.51611C17.5189 9.50902 17.6798 9.50928 18.0004 9.50928C18.3206 9.50928 18.4809 9.50903 18.6195 9.51611Z" fill="#D3D3D3"/>
</svg>
