<svg width="16" height="18" viewBox="0 0 16 18" fill="none" xmlns="http://www.w3.org/2000/svg">
<path d="M7.70776 0.00390625C7.72088 0.0052184 7.73381 0.00791155 7.74683 0.00976562C7.95495 0.0390908 8.14119 0.13564 8.28296 0.277344L14.95 6.94434C15.3195 7.31411 15.3195 7.91343 14.95 8.2832C14.5802 8.6528 13.9809 8.6528 13.6111 8.2832L8.56128 3.2334V17.6143C8.56093 18.1368 8.13664 18.5604 7.61401 18.5605C7.09123 18.5605 6.6671 18.137 6.66675 17.6143V3.23242L1.61694 8.2832C1.24717 8.6528 0.646874 8.6528 0.2771 8.2832C-0.0922817 7.91347 -0.0922824 7.31407 0.2771 6.94434L6.94409 0.277344C7.07759 0.143848 7.25053 0.0496558 7.44409 0.0146484C7.45056 0.0134665 7.45712 0.0127666 7.46362 0.0117188C7.51251 0.00392946 7.56294 0 7.61401 0L7.70776 0.00390625Z" fill="#1B1B1B"/>
</svg>
