<svg width="20" height="20" viewBox="0 0 20 20" fill="none" xmlns="http://www.w3.org/2000/svg">
<path d="M13.3711 3.39282C13.4603 3.30404 13.6051 3.30413 13.6943 3.39282L16.6064 6.30493C16.6954 6.39416 16.6953 6.53889 16.6064 6.62817L6.56836 16.6663H17.5C17.9602 16.6663 18.334 17.04 18.334 17.5002C18.3339 17.9604 17.9602 18.3333 17.5 18.3333H2.10645V18.3313C1.81782 18.3206 1.59067 18.032 1.69141 17.7297L2.93359 14.0012C2.98976 13.8329 3.0845 13.6794 3.20996 13.554L13.3711 3.39282ZM14.4893 2.27466C15.3013 1.46286 16.6186 1.46295 17.4307 2.27466L17.7246 2.56958C18.5365 3.38163 18.5365 4.69793 17.7246 5.51001C17.6434 5.59122 17.5119 5.59122 17.4307 5.51001L14.4893 2.56958C14.4082 2.48836 14.4081 2.35581 14.4893 2.27466Z" fill="#6D6D6D"/>
</svg>
