<svg width="82" height="26" viewBox="0 0 82 26" fill="none" xmlns="http://www.w3.org/2000/svg">
<path d="M33.7405 11.1134C34.2072 10.2388 34.8699 9.5572 35.7286 9.06864C36.5873 8.58008 37.5744 8.3363 38.6908 8.3363C40.1077 8.3363 41.2987 8.71441 42.2649 9.47163C43.2311 10.2278 43.853 11.2557 44.1326 12.5542H40.7356C40.5316 12.1254 40.25 11.798 39.8908 11.5721C39.5306 11.3472 39.1157 11.2338 38.643 11.2338C37.9127 11.2338 37.3306 11.4945 36.8968 12.0149C36.4619 12.5353 36.245 13.2298 36.245 14.0995C36.245 14.9691 36.4619 15.6796 36.8968 16.2C37.3316 16.7204 37.9137 16.9811 38.643 16.9811C39.1147 16.9811 39.5306 16.8686 39.8908 16.6428C40.25 16.4169 40.5316 16.0905 40.7356 15.6607H44.1326C43.853 16.9592 43.2311 17.9871 42.2649 18.7433C41.2987 19.4995 40.1077 19.8786 38.6908 19.8786C37.5744 19.8786 36.5873 19.6348 35.7286 19.1463C34.8699 18.6577 34.2072 17.9761 33.7405 17.1015C33.2739 16.2269 33.04 15.2259 33.04 14.0995C33.04 12.9731 33.2739 11.988 33.7405 11.1134Z" fill="#1B1B1B"/>
<path d="M45.2179 12.8279C45.5562 12.1303 46.0169 11.594 46.602 11.2179C47.1871 10.8428 47.8388 10.6547 48.5582 10.6547C49.1801 10.6547 49.7174 10.7781 50.1682 11.0249C50.6189 11.2716 50.9672 11.604 51.2149 12.0229V10.7672H54.3701V19.798H51.2149V18.5423C50.9682 18.9612 50.6169 19.2935 50.1602 19.5403C49.7035 19.7871 49.1701 19.9104 48.5582 19.9104C47.8388 19.9104 47.1871 19.7224 46.602 19.3473C46.0169 18.9721 45.5552 18.4328 45.2179 17.7294C44.8796 17.0269 44.7104 16.208 44.7104 15.2746C44.7104 14.3413 44.8796 13.5254 45.2179 12.8279ZM50.7393 13.9065C50.4229 13.5741 50.0338 13.408 49.5721 13.408C49.1104 13.408 48.7085 13.5721 48.397 13.8985C48.0856 14.2259 47.9303 14.6846 47.9303 15.2746C47.9303 15.8647 48.0856 16.3124 48.397 16.6507C48.7085 16.9891 49.0995 17.1582 49.5721 17.1582C50.0448 17.1582 50.4229 16.992 50.7393 16.6597C51.0557 16.3274 51.2139 15.8657 51.2139 15.2756C51.2139 14.6856 51.0557 14.2398 50.7393 13.9075V13.9065Z" fill="#1B1B1B"/>
<path d="M61.0975 17.1094V19.798H59.7293C57.4219 19.798 56.2687 18.6547 56.2687 16.3691V13.391H55.1582V10.7671H56.2687V8.57809H59.4398V10.7671H61.0816V13.391H59.4398V16.4169C59.4398 16.6637 59.4965 16.8408 59.609 16.9482C59.7214 17.0557 59.9124 17.1094 60.1801 17.1094H61.0975Z" fill="#1B1B1B"/>
<path d="M65.235 8.44974V15.0338C65.235 15.6458 65.3773 16.1184 65.6618 16.4507C65.9464 16.7831 66.3783 16.9492 66.9574 16.9492C67.5365 16.9492 67.9743 16.7801 68.2698 16.4418C68.5643 16.1035 68.7126 15.6338 68.7126 15.0328V8.44875H71.8678V15.0328C71.8678 16.0736 71.6479 16.9622 71.2081 17.6965C70.7683 18.4318 70.1693 18.9841 69.4131 19.3542C68.6569 19.7244 67.8171 19.9094 66.8937 19.9094C65.9703 19.9094 65.1474 19.7244 64.423 19.3542C63.6987 18.9841 63.1295 18.4338 62.7166 17.7045C62.3036 16.9751 62.0967 16.0846 62.0967 15.0318V8.44775H65.236L65.235 8.44974Z" fill="#1B1B1B"/>
<path d="M74.8687 19.5005C74.2299 19.2269 73.7254 18.8517 73.3553 18.3741C72.9851 17.8965 72.7781 17.3572 72.7354 16.7562H75.7941C75.8368 17.0458 75.9712 17.2716 76.196 17.4328C76.4209 17.594 76.7005 17.6746 77.0329 17.6746C77.2906 17.6746 77.4946 17.6209 77.6448 17.5134C77.7951 17.406 77.8707 17.2667 77.8707 17.0945C77.8707 16.8686 77.7473 16.7025 77.5005 16.596C77.2538 16.4885 76.8458 16.3701 76.2766 16.2418C75.6329 16.1134 75.0955 15.9682 74.6667 15.807C74.2378 15.6458 73.8647 15.3831 73.5483 15.0179C73.2319 14.6527 73.0737 14.1592 73.0737 13.5373C73.0737 13.001 73.2189 12.5154 73.5085 12.0806C73.798 11.6458 74.2249 11.2995 74.7881 11.0428C75.3513 10.7861 76.0299 10.6567 76.8249 10.6567C78.005 10.6567 78.9334 10.9463 79.61 11.5264C80.2856 12.1055 80.6776 12.8677 80.7851 13.8119H77.9354C77.8816 13.5224 77.7553 13.2995 77.5572 13.1443C77.3582 12.989 77.0926 12.9104 76.7602 12.9104C76.5025 12.9104 76.3065 12.9592 76.1732 13.0557C76.0388 13.1522 75.9722 13.2866 75.9722 13.4577C75.9722 13.6726 76.0956 13.8358 76.3423 13.9483C76.5891 14.0607 76.9861 14.1761 77.5334 14.2945C78.1881 14.4338 78.7324 14.59 79.1672 14.7612C79.602 14.9333 79.9831 15.2089 80.3105 15.59C80.6378 15.9711 80.801 16.4885 80.801 17.1433C80.801 17.6696 80.6478 18.1413 80.3423 18.5602C80.0368 18.9791 79.602 19.3084 79.0388 19.5502C78.4756 19.792 77.813 19.9124 77.0508 19.9124C76.2349 19.9124 75.5075 19.7761 74.8697 19.5015L74.8687 19.5005Z" fill="#1B1B1B"/>
<path d="M27.5811 1.21292H2.70543C1.88155 1.21292 1.21289 1.88158 1.21289 2.70546V23.601C1.21289 24.4249 1.88155 25.0935 2.70543 25.0935H27.5811C28.4049 25.0935 29.0736 24.4249 29.0736 23.601V2.70546C29.0736 1.88158 28.4049 1.21292 27.5811 1.21292ZM4.29747 3.20297H25.989C26.594 3.20297 27.0835 3.69252 27.0835 4.2975V13.207L22.9572 9.58008C22.5482 9.0975 21.798 9.05969 21.3393 9.49849L17.1194 13.2388L11.8109 9.797C11.4109 9.52635 10.8815 9.51839 10.4726 9.7761L3.20294 14.3612V4.2975C3.20294 3.69252 3.69249 3.20297 4.29747 3.20297Z" fill="#1B1B1B"/>
<path d="M13.4381 18.6119C14.125 18.6119 14.6819 17.8434 14.6819 16.8955C14.6819 15.9475 14.125 15.1791 13.4381 15.1791C12.7512 15.1791 12.1943 15.9475 12.1943 16.8955C12.1943 17.8434 12.7512 18.6119 13.4381 18.6119Z" fill="#FDFDFD"/>
<path d="M23.4381 18.6119C24.125 18.6119 24.6819 17.8323 24.6819 16.8706C24.6819 15.9089 24.125 15.1293 23.4381 15.1293C22.7512 15.1293 22.1943 15.9089 22.1943 16.8706C22.1943 17.8323 22.7512 18.6119 23.4381 18.6119Z" fill="#FDFDFD"/>
</svg>
